<?xml version="1.0" standalone="no"?>
<!DOCTYPE svg PUBLIC "-//W3C//DTD SVG 20010904//EN"
 "http://www.w3.org/TR/2001/REC-SVG-20010904/DTD/svg10.dtd">
<svg version="1.0" xmlns="http://www.w3.org/2000/svg"
 width="1920.000000pt" height="3201.000000pt" viewBox="0 0 1920.000000 3201.000000"
 preserveAspectRatio="xMidYMid meet">
<metadata>
Created by potrace 1.16, written by Peter Selinger 2001-2019
</metadata>
<g transform="translate(0.000000,3201.000000) scale(0.100000,-0.100000)"
fill="#000000" stroke="none">
<path d="M9536 31910 c-32 -55 -62 -97 -66 -95 -5 3 -17 -11 -29 -31 -30 -50
-26 -57 5 -9 87 134 -40 -86 -475 -825 -271 -459 -496 -834 -502 -832 -6 1 -8
-2 -4 -7 8 -14 -85 -172 -98 -164 -6 3 -7 1 -3 -5 8 -14 -83 -174 -95 -166 -5
3 -6 -1 -4 -8 3 -8 -2 -22 -10 -33 -15 -19 -16 -19 -5 5 10 23 10 24 -4 6 -9
-10 -13 -23 -10 -28 5 -8 -83 -168 -92 -168 -3 0 0 10 6 23 10 20 10 21 -4 4
-8 -11 -13 -24 -10 -31 2 -6 -3 -20 -12 -31 -8 -11 -12 -14 -8 -6 5 9 3 12 -5
7 -6 -4 -9 -12 -5 -17 3 -5 -9 -34 -26 -64 -31 -54 -51 -76 -30 -32 11 21 10
21 -4 3 -9 -10 -13 -23 -10 -28 8 -13 -56 -119 -68 -112 -7 4 -8 2 -4 -4 9
-15 -53 -124 -66 -115 -7 3 -8 1 -4 -5 10 -16 -12 -54 -26 -46 -7 4 -8 3 -4
-4 9 -15 -53 -124 -66 -115 -7 3 -8 1 -4 -5 9 -15 -84 -173 -97 -165 -6 3 -7
1 -3 -5 10 -16 -12 -54 -26 -46 -7 4 -8 3 -4 -4 9 -15 -53 -124 -66 -115 -7 3
-8 1 -4 -5 10 -16 -12 -54 -26 -46 -7 4 -8 3 -4 -5 10 -15 -52 -123 -66 -115
-7 4 -8 2 -4 -4 10 -16 -12 -54 -26 -46 -7 4 -8 3 -4 -5 10 -15 -52 -123 -66
-115 -7 4 -8 2 -4 -5 10 -15 -83 -173 -97 -164 -6 3 -7 1 -3 -5 10 -16 -12
-54 -26 -46 -7 4 -8 3 -4 -5 10 -15 -52 -123 -66 -115 -7 4 -8 2 -4 -4 10 -16
-12 -54 -26 -46 -7 4 -8 3 -4 -5 10 -15 -52 -123 -66 -115 -7 4 -8 2 -4 -5 10
-15 -83 -173 -96 -164 -7 3 -8 1 -4 -6 10 -15 -83 -173 -96 -164 -7 3 -8 1 -4
-5 8 -13 -11 -55 -22 -48 -4 2 -8 -3 -8 -12 0 -23 -1993 -3408 -2004 -3405 -5
2 -7 -3 -4 -10 2 -7 -3 -21 -11 -32 -15 -19 -16 -19 -5 5 10 23 10 24 -4 6 -9
-10 -13 -23 -10 -27 5 -9 -11 -38 -209 -374 -94 -160 -134 -222 -108 -165 11
23 11 24 -3 6 -9 -10 -13 -23 -10 -27 8 -14 -26 -70 -38 -63 -7 4 -8 3 -4 -4
9 -15 -53 -124 -66 -115 -7 3 -8 1 -4 -5 4 -7 -12 -43 -35 -82 -40 -68 -61
-93 -39 -47 11 21 10 21 -4 3 -9 -10 -13 -23 -10 -27 8 -14 -26 -70 -38 -63
-7 4 -8 3 -4 -4 4 -7 -5 -32 -19 -57 -28 -47 -44 -61 -25 -22 11 21 10 21 -4
3 -9 -10 -13 -23 -10 -27 8 -14 -26 -70 -38 -63 -7 4 -8 3 -4 -4 4 -7 -5 -32
-19 -57 -28 -47 -44 -61 -25 -22 11 21 10 21 -4 3 -9 -10 -13 -23 -10 -27 8
-14 -26 -70 -38 -63 -7 4 -8 3 -4 -4 9 -15 -53 -124 -66 -115 -7 3 -8 1 -4 -5
10 -16 -12 -54 -26 -46 -7 4 -8 2 -4 -5 4 -6 -4 -32 -19 -56 -27 -47 -44 -62
-25 -22 11 21 10 21 -4 3 -9 -10 -13 -23 -10 -27 8 -14 -26 -70 -38 -63 -7 4
-8 3 -4 -5 10 -15 -83 -173 -96 -164 -7 3 -8 1 -4 -6 10 -15 -52 -123 -66
-115 -7 4 -8 2 -4 -4 10 -16 -12 -54 -26 -46 -7 4 -8 3 -4 -4 9 -16 -83 -174
-96 -165 -7 3 -8 1 -4 -6 10 -15 -83 -173 -96 -164 -7 3 -8 1 -4 -6 10 -15
-83 -173 -96 -164 -7 3 -8 1 -4 -6 8 -13 -81 -174 -93 -167 -4 3 -7 -3 -7 -12
0 -21 -691 -1197 -704 -1197 -4 0 -12 -4 -17 -9 -5 -5 -3 -6 5 -2 6 4 12 5 12
1 0 -8 -1441 -2458 -1453 -2470 -5 -5 -4 1 2 15 11 23 11 24 -3 6 -9 -10 -13
-23 -10 -28 5 -8 -83 -168 -92 -168 -3 0 0 10 6 23 11 21 10 21 -4 3 -9 -10
-13 -23 -10 -27 8 -14 -26 -70 -38 -63 -7 4 -8 3 -4 -4 4 -7 -5 -32 -19 -57
-28 -47 -44 -61 -25 -22 11 21 10 21 -4 3 -9 -10 -13 -23 -10 -27 8 -14 -26
-70 -38 -63 -7 4 -8 3 -4 -4 4 -7 -5 -32 -19 -57 -28 -47 -44 -61 -25 -22 11
21 10 21 -4 3 -9 -10 -13 -23 -10 -27 8 -14 -26 -70 -38 -63 -7 4 -8 3 -4 -4
10 -16 -12 -54 -26 -46 -7 4 -8 3 -4 -4 9 -15 -53 -124 -66 -115 -7 3 -8 1 -4
-5 9 -15 -12 -54 -24 -47 -6 3 -7 0 -5 -7 3 -8 -2 -22 -10 -33 -15 -19 -16
-19 -5 5 10 23 10 24 -4 6 -9 -10 -13 -23 -10 -27 8 -14 -26 -70 -38 -63 -7 4
-8 3 -4 -4 9 -16 -83 -174 -96 -165 -7 3 -8 1 -4 -5 10 -16 -12 -54 -26 -46
-7 4 -8 2 -4 -5 4 -6 -4 -32 -19 -56 -27 -47 -44 -62 -25 -22 11 21 10 21 -4
3 -9 -10 -13 -23 -10 -27 8 -14 -26 -70 -38 -63 -7 4 -8 3 -4 -5 10 -15 -52
-123 -66 -115 -7 4 -8 2 -4 -4 9 -16 -83 -174 -96 -165 -7 3 -8 1 -4 -5 10
-16 -12 -54 -26 -46 -7 4 -8 3 -4 -4 9 -15 -53 -124 -66 -115 -7 3 -8 1 -4 -5
8 -13 -21 -75 -32 -68 -4 2 -8 -9 -9 -25 -1 -15 2 -31 8 -34 5 -4 6 -11 3 -17
-4 -7 -2 -8 4 -4 12 7 447 -259 447 -273 0 -5 4 -13 9 -18 5 -5 6 -2 1 6 -5 9
-3 12 6 9 8 -3 13 -11 11 -17 -1 -7 2 -10 8 -6 14 9 371 -215 363 -228 -3 -6
-1 -7 5 -3 14 9 163 -84 155 -97 -3 -6 -1 -7 5 -3 14 9 163 -84 155 -97 -3 -6
-1 -7 5 -3 14 9 163 -84 155 -97 -3 -6 -1 -7 5 -3 15 9 324 -183 315 -196 -3
-7 -1 -8 5 -4 15 9 533 -314 525 -327 -3 -6 -1 -7 5 -3 15 9 164 -83 156 -96
-4 -7 -2 -8 5 -4 15 10 483 -283 474 -297 -3 -6 -1 -7 5 -3 16 10 54 -12 46
-26 -4 -6 -3 -8 4 -4 13 8 134 -63 127 -74 -3 -5 0 -12 6 -16 8 -5 9 -3 4 6
-5 8 -3 11 6 8 8 -3 13 -11 11 -17 -1 -7 2 -10 7 -7 14 9 162 -85 154 -97 -3
-6 -1 -7 5 -3 14 9 163 -84 155 -97 -3 -5 -1 -7 5 -3 13 8 134 -63 127 -74 -3
-5 0 -12 6 -16 8 -5 9 -3 4 6 -5 8 -3 11 6 8 8 -3 13 -11 11 -17 -1 -7 2 -10
7 -7 12 8 132 -64 126 -74 -3 -5 0 -12 6 -16 8 -5 9 -3 4 6 -5 8 -3 11 6 8 8
-3 13 -11 11 -17 -1 -7 2 -10 7 -7 12 8 132 -64 126 -74 -3 -5 0 -12 6 -16 8
-5 9 -3 4 6 -5 8 -3 11 6 8 8 -3 13 -11 11 -17 -1 -7 2 -10 8 -6 9 6 190 -100
190 -111 0 -3 -5 -2 -12 2 -7 4 -8 3 -4 -5 4 -6 12 -9 17 -5 14 8 180 -96 172
-109 -3 -6 -1 -7 5 -3 15 9 114 -53 105 -66 -3 -7 -1 -8 5 -4 16 10 54 -12 46
-26 -4 -7 -3 -8 4 -4 15 9 114 -53 105 -66 -3 -7 -1 -8 5 -4 16 10 54 -12 46
-26 -4 -6 -3 -8 4 -4 13 8 134 -63 127 -74 -3 -5 0 -12 6 -16 8 -5 9 -3 4 6
-5 8 -3 11 6 8 8 -3 13 -11 11 -17 -1 -7 2 -10 7 -7 13 8 163 -83 156 -95 -4
-5 0 -6 8 -3 8 3 18 0 23 -7 5 -8 3 -10 -6 -4 -9 5 -11 4 -6 -4 4 -6 12 -9 17
-6 12 8 100 -45 94 -55 -3 -5 0 -12 6 -16 8 -5 9 -3 4 6 -5 8 -3 11 6 8 8 -3
13 -11 11 -17 -1 -7 2 -10 8 -6 14 9 52 -14 44 -27 -4 -7 -3 -8 4 -4 15 9 114
-53 105 -66 -3 -7 -1 -8 5 -4 11 6 882 -528 882 -540 0 -3 -5 -2 -12 2 -7 4
-8 3 -4 -5 4 -6 12 -9 17 -6 12 8 100 -45 94 -55 -3 -5 0 -12 6 -16 8 -4 9 -3
5 4 -4 7 -5 12 -2 12 12 0 841 -522 841 -530 0 -5 4 -12 9 -17 5 -5 6 -3 2 5
-4 6 -5 12 -3 12 12 0 152 -92 152 -99 0 -5 4 -13 9 -18 5 -5 6 -3 2 5 -4 6
-5 12 -2 12 3 0 221 -134 483 -298 504 -315 1618 -1010 1813 -1131 63 -39 115
-77 115 -84 0 -6 7 -12 15 -12 8 0 15 6 15 12 0 7 52 45 115 84 195 121 1309
816 1813 1131 262 164 480 298 483 298 3 0 2 -6 -2 -12 -4 -8 -3 -10 2 -5 5 5
9 13 9 18 0 7 140 99 152 99 2 0 1 -6 -3 -12 -4 -8 -3 -10 2 -5 5 5 9 12 9 17
0 8 829 530 841 530 3 0 2 -5 -2 -12 -4 -7 -3 -8 5 -4 6 4 9 11 6 16 -6 10 82
63 94 55 5 -3 13 0 17 6 4 8 3 9 -4 5 -7 -4 -12 -5 -12 -2 0 12 871 546 882
540 6 -4 8 -3 5 4 -9 13 90 75 105 66 7 -4 8 -3 4 4 -8 13 30 36 44 27 6 -4 9
-1 8 6 -2 6 3 14 11 17 9 3 11 0 6 -8 -5 -9 -4 -11 4 -6 6 4 9 11 6 16 -6 10
82 63 94 55 5 -3 13 0 17 6 5 8 3 9 -6 4 -9 -6 -11 -4 -6 4 5 7 15 10 23 7 8
-3 12 -2 8 3 -7 12 143 103 156 95 5 -3 8 0 7 7 -2 6 3 14 11 17 9 3 11 0 6
-8 -5 -9 -4 -11 4 -6 6 4 9 11 6 16 -7 11 114 82 127 74 7 -4 8 -2 4 4 -8 14
30 36 46 26 6 -4 8 -3 5 4 -9 13 90 75 105 66 7 -4 8 -3 4 4 -8 14 30 36 46
26 6 -4 8 -3 5 4 -9 13 90 75 105 66 6 -4 8 -3 5 3 -8 13 158 117 172 109 5
-4 13 -1 17 5 4 8 3 9 -4 5 -7 -4 -12 -5 -12 -2 0 11 181 117 190 111 6 -4 9
-1 8 6 -2 6 3 14 11 17 9 3 11 0 6 -8 -5 -9 -4 -11 4 -6 6 4 9 11 6 16 -6 10
114 82 126 74 5 -3 8 0 7 7 -2 6 3 14 11 17 9 3 11 0 6 -8 -5 -9 -4 -11 4 -6
6 4 9 11 6 16 -6 10 114 82 126 74 5 -3 8 0 7 7 -2 6 3 14 11 17 9 3 11 0 6
-8 -5 -9 -4 -11 4 -6 6 4 9 11 6 16 -7 11 114 82 127 74 6 -4 8 -2 5 3 -8 13
141 106 155 97 6 -4 8 -3 5 3 -8 12 140 106 154 97 5 -3 8 0 7 7 -2 6 3 14 11
17 9 3 11 0 6 -8 -5 -9 -4 -11 4 -6 6 4 9 11 6 16 -7 11 114 82 127 74 7 -4 8
-2 4 4 -8 14 30 36 46 26 6 -4 8 -3 5 3 -9 14 459 307 474 297 7 -4 9 -3 5 4
-8 13 141 105 156 96 6 -4 8 -3 5 3 -8 13 510 336 525 327 6 -4 8 -3 5 4 -9
13 300 205 315 196 6 -4 8 -3 5 3 -8 13 141 106 155 97 6 -4 8 -3 5 3 -8 13
141 106 155 97 6 -4 8 -3 5 3 -8 13 141 106 155 97 6 -4 8 -3 5 3 -8 13 349
237 363 228 6 -4 9 -1 8 6 -2 6 3 14 11 17 9 3 11 0 6 -9 -5 -8 -4 -11 1 -6 5
5 9 13 9 18 0 14 435 280 447 273 6 -4 8 -3 4 4 -3 6 -2 13 3 17 6 3 9 19 8
34 -1 16 -5 27 -9 25 -11 -7 -40 55 -32 68 4 6 3 8 -4 5 -13 -9 -75 100 -66
115 4 7 3 8 -4 4 -14 -8 -36 30 -26 46 4 6 3 8 -4 5 -13 -9 -105 149 -96 165
4 6 3 8 -4 4 -14 -8 -76 100 -66 115 4 8 3 9 -4 5 -12 -7 -46 49 -38 63 3 4
-1 17 -10 27 -14 18 -15 18 -4 -3 19 -40 2 -25 -25 22 -15 24 -23 50 -19 56 4
7 3 9 -4 5 -14 -8 -36 30 -26 46 4 6 3 8 -4 5 -13 -9 -105 149 -96 165 4 7 3
8 -4 4 -12 -7 -46 49 -38 63 3 4 -1 17 -10 27 -14 18 -14 17 -4 -6 11 -24 10
-24 -5 -5 -8 11 -13 25 -10 33 2 7 1 10 -5 7 -12 -7 -33 32 -24 47 4 6 3 8 -4
5 -13 -9 -75 100 -66 115 4 7 3 8 -4 4 -14 -8 -36 30 -26 46 4 7 3 8 -4 4 -12
-7 -46 49 -38 63 3 4 -1 17 -10 27 -14 18 -15 18 -4 -3 19 -39 3 -25 -25 22
-14 25 -23 50 -19 57 4 7 3 8 -4 4 -12 -7 -46 49 -38 63 3 4 -1 17 -10 27 -14
18 -15 18 -4 -3 19 -39 3 -25 -25 22 -14 25 -23 50 -19 57 4 7 3 8 -4 4 -12
-7 -46 49 -38 63 3 4 -1 17 -10 27 -14 18 -15 18 -4 -3 6 -13 9 -23 6 -23 -9
0 -97 160 -92 168 3 5 -1 18 -10 28 -14 18 -14 17 -3 -6 6 -14 7 -20 2 -15
-12 12 -1453 2462 -1453 2470 0 4 6 3 13 -1 7 -4 9 -3 4 2 -5 5 -13 9 -17 9
-13 0 -704 1176 -704 1197 0 9 -3 15 -7 12 -12 -7 -101 154 -93 167 4 7 3 9
-4 6 -13 -9 -106 149 -96 164 4 7 3 9 -4 6 -13 -9 -106 149 -96 164 4 7 3 9
-4 6 -13 -9 -105 149 -96 165 4 7 3 8 -4 4 -14 -8 -36 30 -26 46 4 6 3 8 -4 4
-14 -8 -76 100 -66 115 4 7 3 9 -4 6 -13 -9 -106 149 -96 164 4 8 3 9 -4 5
-12 -7 -46 49 -38 63 3 4 -1 17 -10 27 -14 18 -15 18 -4 -3 19 -40 2 -25 -25
22 -15 24 -23 50 -19 56 4 7 3 9 -4 5 -14 -8 -36 30 -26 46 4 6 3 8 -4 5 -13
-9 -75 100 -66 115 4 7 3 8 -4 4 -12 -7 -46 49 -38 63 3 4 -1 17 -10 27 -14
18 -15 18 -4 -3 19 -39 3 -25 -25 22 -14 25 -23 50 -19 57 4 7 3 8 -4 4 -12
-7 -46 49 -38 63 3 4 -1 17 -10 27 -14 18 -15 18 -4 -3 19 -39 3 -25 -25 22
-14 25 -23 50 -19 57 4 7 3 8 -4 4 -12 -7 -46 49 -38 63 3 4 -1 17 -10 27 -14
18 -15 18 -4 -3 22 -46 1 -21 -39 47 -23 39 -39 75 -35 82 4 6 3 8 -4 5 -13
-9 -75 100 -66 115 4 7 3 8 -4 4 -12 -7 -46 49 -38 63 3 4 -1 17 -10 27 -14
18 -14 17 -3 -6 26 -57 -14 5 -108 165 -198 336 -214 365 -209 374 3 4 -1 17
-10 27 -14 18 -14 17 -4 -6 11 -24 10 -24 -5 -5 -8 11 -13 25 -11 32 3 7 1 12
-4 10 -11 -3 -2004 3382 -2004 3405 0 9 -4 14 -8 12 -11 -7 -30 35 -22 48 4 6
3 8 -4 5 -13 -9 -106 149 -96 164 4 7 3 9 -4 6 -13 -9 -106 149 -96 164 4 7 3
9 -4 5 -14 -8 -76 100 -66 115 4 8 3 9 -4 5 -14 -8 -36 30 -26 46 4 6 3 8 -4
4 -14 -8 -76 100 -66 115 4 8 3 9 -4 5 -14 -8 -36 30 -26 46 4 6 3 8 -3 5 -14
-9 -107 149 -97 164 4 7 3 9 -4 5 -14 -8 -76 100 -66 115 4 8 3 9 -4 5 -14 -8
-36 30 -26 46 4 6 3 8 -4 4 -14 -8 -76 100 -66 115 4 8 3 9 -4 5 -14 -8 -36
30 -26 46 4 6 3 8 -4 5 -13 -9 -75 100 -66 115 4 7 3 8 -4 4 -14 -8 -36 30
-26 46 4 6 3 8 -3 5 -13 -8 -106 150 -97 165 4 6 3 8 -4 5 -13 -9 -75 100 -66
115 4 7 3 8 -4 4 -14 -8 -36 30 -26 46 4 6 3 8 -4 5 -13 -9 -75 100 -66 115 4
6 3 8 -4 4 -12 -7 -76 99 -68 112 3 5 -1 18 -10 28 -14 18 -15 18 -4 -3 21
-44 1 -22 -30 32 -17 30 -29 59 -26 64 4 5 1 13 -5 17 -8 5 -10 2 -5 -7 4 -8
0 -5 -8 6 -9 11 -14 25 -12 31 3 7 -2 20 -10 31 -14 17 -14 16 -4 -4 6 -13 9
-23 6 -23 -9 0 -97 160 -92 168 3 5 -1 18 -10 28 -14 18 -14 17 -4 -6 11 -24
10 -24 -5 -5 -8 11 -13 25 -10 33 2 7 1 11 -4 8 -12 -8 -103 152 -95 166 4 6
3 8 -3 5 -13 -8 -106 150 -97 165 4 6 3 8 -3 5 -6 -4 -252 404 -569 943 -307
523 -561 950 -564 950 -3 0 -32 -45 -64 -100z"/>
<path d="M3 13735 c0 -20 4 -32 10 -28 6 4 8 0 4 -9 -5 -14 46 -98 60 -98 3 0
-6 15 -19 33 -30 40 -41 57 -34 57 11 0 137 -191 131 -199 -3 -5 0 -13 6 -17
8 -4 9 -3 5 4 -4 7 -5 12 -2 12 5 0 228 -317 235 -334 2 -5 -3 -5 -10 -1 -8 5
-11 4 -6 -1 5 -5 13 -9 17 -9 10 0 443 -616 437 -622 -2 -2 -20 22 -41 52 -20
30 -39 55 -41 55 -3 0 13 -27 35 -60 22 -33 44 -59 49 -57 9 2 211 -278 211
-291 0 -4 -10 4 -21 18 l-21 25 14 -25 c9 -14 20 -25 26 -25 14 0 274 -373
267 -384 -3 -5 0 -13 6 -17 8 -5 9 -3 4 7 -32 56 59 -71 379 -529 332 -475
406 -585 345 -512 l-21 25 14 -25 c9 -14 20 -25 26 -25 15 0 114 -143 107
-155 -3 -5 0 -12 6 -16 8 -4 9 -3 5 4 -4 7 -5 12 -2 12 6 0 179 -250 184 -265
2 -5 -6 1 -18 15 l-22 25 14 -25 c9 -14 20 -25 27 -25 15 0 44 -43 36 -54 -3
-5 0 -13 6 -17 8 -4 9 -3 5 4 -4 7 -5 12 -2 12 10 0 297 -421 292 -429 -3 -5
2 -15 12 -22 15 -13 16 -12 3 4 -7 9 -11 17 -8 17 6 0 740 -1048 745 -1064 2
-6 -6 0 -18 14 l-22 25 14 -25 c9 -14 20 -25 26 -25 11 0 72 -79 72 -92 0 -5
-10 3 -21 17 l-21 25 14 -25 c9 -14 20 -25 27 -25 15 0 44 -43 36 -54 -3 -5 0
-13 6 -17 8 -5 9 -3 4 7 -8 12 -6 12 8 0 20 -16 23 -36 5 -25 -8 4 -10 3 -5
-2 5 -5 12 -9 17 -9 8 0 70 -80 70 -91 0 -3 -6 -2 -12 2 -8 4 -10 3 -5 -2 5
-5 13 -9 17 -9 9 0 650 -911 650 -923 0 -4 -10 4 -21 18 l-21 25 14 -25 c9
-14 20 -25 26 -25 15 0 114 -143 107 -155 -3 -5 0 -12 6 -16 8 -4 9 -3 5 4 -4
7 -5 12 -2 12 6 0 186 -259 186 -268 0 -4 -10 4 -21 18 l-21 25 14 -25 c9 -14
20 -25 27 -25 15 0 44 -43 36 -54 -3 -5 0 -13 6 -17 8 -5 9 -3 4 7 -8 12 -6
12 8 0 19 -15 23 -36 5 -25 -7 4 -8 3 -4 -5 4 -6 11 -9 16 -6 10 6 43 -43 35
-55 -3 -5 0 -12 6 -16 8 -5 9 -3 4 7 -31 55 59 -71 379 -529 332 -475 406
-586 345 -512 l-21 25 14 -25 c9 -14 20 -25 26 -25 11 0 72 -79 72 -92 0 -5
-10 3 -21 17 l-21 25 14 -25 c9 -14 20 -25 27 -25 14 0 64 -73 57 -84 -5 -8
51 -91 61 -91 3 0 -6 15 -19 32 -31 41 -41 58 -34 58 7 0 166 -229 166 -238 0
-4 -10 4 -21 18 l-21 25 14 -25 c9 -14 20 -25 26 -25 15 0 115 -143 107 -154
-3 -5 0 -13 6 -17 8 -5 10 -3 4 7 -35 63 88 -111 519 -729 273 -392 494 -716
491 -721 -3 -5 0 -13 6 -17 8 -4 9 -3 5 4 -4 7 -5 12 -2 12 11 0 67 -91 61
-99 -3 -5 0 -13 6 -17 8 -5 9 -3 4 7 -32 56 59 -71 379 -529 332 -475 406
-585 345 -512 l-21 25 14 -25 c9 -14 20 -25 26 -25 11 0 72 -79 72 -92 0 -5
-10 3 -21 17 l-21 25 14 -25 c9 -14 20 -25 27 -25 15 0 44 -43 36 -54 -3 -5 0
-13 6 -17 8 -4 9 -3 5 4 -4 7 -5 12 -2 12 5 0 228 -317 235 -334 2 -5 -2 -5
-9 -1 -9 5 -11 4 -6 -4 4 -6 11 -9 15 -6 11 6 63 -73 56 -85 -3 -5 0 -12 6
-16 8 -4 9 -3 5 4 -4 7 -5 12 -3 12 3 0 61 -80 129 -177 68 -98 391 -559 716
-1025 326 -465 592 -850 592 -854 0 -4 -7 1 -16 12 -15 18 -15 18 -5 -2 14
-28 68 -27 82 1 10 20 10 20 -5 1 -9 -11 -16 -16 -16 -12 0 4 266 389 592 854
325 466 648 927 716 1024 68 98 126 178 129 178 2 0 1 -5 -3 -12 -4 -7 -3 -8
5 -4 6 4 9 11 6 16 -7 12 45 91 56 85 4 -3 11 0 15 6 5 8 3 9 -6 4 -7 -4 -11
-4 -9 1 7 17 230 334 235 334 3 0 2 -5 -2 -12 -4 -7 -3 -8 5 -4 6 4 9 12 6 17
-8 11 21 54 36 54 7 0 18 11 27 25 l14 25 -21 -25 c-11 -14 -21 -22 -21 -17 0
13 61 92 72 92 6 0 17 11 26 25 l14 25 -21 -25 c-61 -73 13 37 345 512 320
458 411 585 379 529 -5 -10 -4 -12 4 -7 6 4 9 12 6 17 -6 8 50 99 61 99 3 0 2
-5 -2 -12 -4 -7 -3 -8 5 -4 6 4 9 12 6 17 -3 5 218 329 491 721 431 618 554
792 519 729 -6 -10 -4 -12 4 -7 6 4 9 12 6 17 -8 11 92 154 107 154 6 0 17 11
26 25 l14 25 -21 -25 c-11 -14 -21 -22 -21 -18 0 9 159 238 166 238 7 0 -3
-17 -34 -58 -13 -17 -22 -32 -19 -32 10 0 66 83 61 91 -7 11 43 84 57 84 7 0
18 11 27 25 l14 25 -21 -25 c-11 -14 -21 -22 -21 -17 0 13 61 92 72 92 6 0 17
11 26 25 l14 25 -21 -25 c-61 -74 13 37 345 512 320 458 410 584 379 529 -5
-10 -4 -12 4 -7 6 4 9 11 6 16 -8 12 25 61 35 55 5 -3 12 0 16 6 4 8 3 9 -4 5
-18 -11 -14 10 5 25 14 12 16 12 8 0 -5 -10 -4 -12 4 -7 6 4 9 12 6 17 -8 11
21 54 36 54 7 0 18 11 27 25 l14 25 -21 -25 c-11 -14 -21 -22 -21 -18 0 9 180
268 186 268 3 0 2 -5 -2 -12 -4 -7 -3 -8 5 -4 6 4 9 11 6 16 -7 12 92 155 107
155 6 0 17 11 26 25 l14 25 -21 -25 c-11 -14 -21 -22 -21 -18 0 12 641 923
650 923 4 0 12 4 17 9 5 5 3 6 -4 2 -7 -4 -13 -5 -13 -2 0 11 62 91 70 91 5 0
12 4 17 9 5 5 3 6 -4 2 -19 -11 -16 9 4 25 14 12 16 12 8 0 -5 -10 -4 -12 4
-7 6 4 9 12 6 17 -8 11 21 54 36 54 7 0 18 11 27 25 l14 25 -21 -25 c-11 -14
-21 -22 -21 -17 0 13 61 92 72 92 6 0 17 11 26 25 l14 25 -22 -25 c-12 -14
-20 -20 -18 -14 5 16 739 1064 745 1064 3 0 -1 -8 -8 -17 -13 -16 -12 -17 3
-4 10 7 15 17 12 22 -5 8 282 429 292 429 3 0 2 -5 -2 -12 -4 -7 -3 -8 5 -4 6
4 9 12 6 17 -8 11 21 54 36 54 7 0 18 11 27 25 l14 25 -22 -25 c-12 -14 -20
-20 -18 -15 5 15 178 265 184 265 3 0 2 -5 -2 -12 -4 -7 -3 -8 5 -4 6 4 9 11
6 16 -7 12 92 155 107 155 6 0 17 11 26 25 l14 25 -21 -25 c-61 -73 13 37 345
512 320 458 411 585 379 529 -5 -10 -4 -12 4 -7 6 4 9 12 6 17 -7 11 253 384
267 384 6 0 17 11 26 25 l14 25 -21 -25 c-11 -14 -21 -22 -21 -18 0 13 202
293 211 291 5 -2 27 24 49 57 22 33 38 60 35 60 -2 0 -21 -25 -41 -55 -21 -30
-39 -54 -41 -52 -6 6 427 622 437 622 4 0 12 4 17 9 5 5 2 6 -6 1 -7 -4 -12
-4 -10 1 7 17 230 334 235 334 3 0 2 -5 -2 -12 -4 -7 -3 -8 5 -4 6 4 9 12 6
17 -6 8 120 199 131 199 7 0 -4 -17 -34 -57 -13 -18 -22 -33 -19 -33 14 0 65
84 60 98 -4 9 -2 13 4 9 6 -4 10 8 10 28 0 36 -8 36 -52 0 -19 -16 -18 -16 7
-1 56 33 40 14 -20 -24 -67 -43 -77 -47 -66 -27 4 7 3 9 -2 4 -5 -5 -9 -12 -9
-17 0 -8 -828 -530 -841 -530 -3 0 -2 6 2 13 4 7 3 9 -2 4 -5 -5 -9 -13 -9
-18 0 -8 -458 -299 -471 -299 -3 0 -2 6 2 13 4 7 3 9 -2 4 -5 -5 -9 -13 -9
-18 0 -7 -140 -99 -152 -99 -2 0 -1 6 3 13 4 7 3 9 -2 4 -5 -5 -9 -13 -9 -17
0 -15 -435 -281 -447 -274 -7 4 -8 3 -4 -4 8 -14 -30 -36 -46 -26 -6 4 -8 3
-4 -4 7 -12 -109 -86 -123 -77 -5 3 -13 0 -17 -6 -5 -8 -3 -9 6 -4 9 6 11 4 6
-4 -5 -7 -15 -10 -23 -7 -8 3 -12 2 -8 -3 7 -12 -111 -84 -124 -76 -5 3 -13 0
-17 -6 -5 -8 -3 -9 6 -4 9 6 11 4 6 -4 -5 -7 -14 -10 -22 -7 -8 3 -13 0 -11
-6 1 -6 -4 -13 -12 -16 -9 -3 -11 0 -6 8 5 9 4 11 -4 6 -6 -4 -9 -11 -6 -16 6
-10 -114 -82 -126 -74 -5 3 -8 0 -7 -7 2 -6 -3 -14 -11 -17 -9 -3 -11 0 -6 8
5 9 4 11 -4 6 -6 -4 -9 -11 -6 -16 6 -10 -114 -82 -126 -74 -5 3 -8 0 -7 -7 2
-6 -3 -14 -11 -17 -9 -3 -11 0 -6 8 5 9 4 11 -4 6 -6 -4 -9 -11 -6 -16 6 -10
-114 -82 -126 -74 -5 3 -8 0 -7 -7 2 -6 -3 -14 -11 -17 -9 -3 -11 0 -6 8 5 9
4 11 -4 6 -6 -4 -9 -11 -6 -16 7 -11 -114 -82 -127 -74 -6 4 -8 2 -5 -3 8 -13
-141 -106 -155 -97 -7 4 -8 2 -4 -4 8 -14 -30 -36 -46 -26 -6 4 -8 3 -5 -3 9
-14 -139 -107 -154 -97 -7 4 -9 3 -5 -4 7 -12 -109 -86 -123 -77 -5 3 -13 0
-17 -6 -5 -8 -3 -9 6 -4 9 6 11 4 6 -4 -5 -7 -15 -10 -23 -7 -8 3 -12 2 -8 -3
7 -13 -143 -103 -157 -95 -6 4 -8 3 -5 -3 8 -12 -140 -106 -154 -97 -5 3 -8 0
-7 -7 2 -6 -3 -14 -11 -17 -9 -3 -11 0 -6 8 5 9 4 11 -4 6 -6 -4 -9 -11 -6
-16 6 -10 -114 -82 -126 -74 -5 3 -8 0 -7 -7 2 -6 -3 -14 -11 -17 -9 -3 -11 0
-6 8 5 9 4 11 -4 6 -6 -4 -9 -11 -6 -16 7 -11 -114 -82 -127 -74 -7 4 -8 2 -4
-4 8 -14 -30 -36 -46 -26 -6 4 -8 3 -5 -4 9 -13 -90 -75 -105 -66 -6 4 -8 3
-5 -3 8 -13 -189 -137 -203 -128 -6 4 -9 1 -8 -6 2 -6 -3 -14 -11 -17 -9 -3
-11 0 -6 8 5 9 4 11 -4 6 -6 -4 -9 -11 -6 -15 7 -12 -113 -83 -127 -75 -6 4
-8 3 -4 -4 8 -13 -141 -105 -156 -96 -7 4 -8 2 -4 -4 4 -6 -4 -16 -16 -23 -21
-11 -22 -11 -9 5 12 14 7 13 -22 -4 -20 -12 -40 -27 -43 -32 -4 -6 5 -2 20 7
14 10 26 15 26 12 0 -12 -102 -67 -112 -61 -6 4 -8 3 -5 -3 8 -13 -141 -106
-155 -97 -6 4 -8 3 -5 -3 8 -13 -141 -106 -155 -97 -7 4 -8 2 -4 -4 8 -14 -30
-36 -46 -26 -6 4 -8 3 -5 -3 8 -13 -299 -207 -313 -198 -6 4 -9 1 -8 -6 2 -6
-3 -14 -11 -17 -9 -3 -11 0 -6 9 5 8 4 11 -1 6 -5 -5 -9 -13 -9 -17 0 -12
-1266 -803 -1287 -804 -9 0 -16 -4 -15 -8 2 -8 -69 -53 -986 -625 -356 -222
-652 -401 -658 -398 -5 4 -8 2 -7 -4 2 -5 -180 -125 -404 -265 l-408 -254
-407 254 c-225 140 -407 260 -405 265 1 6 -2 8 -7 4 -6 -3 -302 176 -658 398
-917 572 -988 617 -986 625 1 4 -6 8 -15 8 -21 1 -1287 792 -1287 804 0 4 -4
12 -9 17 -5 5 -6 2 -1 -6 5 -9 3 -12 -6 -9 -8 3 -13 11 -11 17 1 7 -2 10 -8 6
-14 -9 -321 185 -313 198 3 6 1 7 -5 3 -16 -10 -54 12 -46 26 4 6 3 8 -4 4
-14 -9 -163 84 -155 97 3 6 1 7 -5 3 -14 -9 -163 84 -155 97 3 6 1 7 -5 3 -10
-6 -112 49 -112 61 0 3 12 -2 26 -12 15 -9 24 -13 20 -7 -3 5 -23 20 -43 32
-29 17 -34 18 -22 4 13 -16 12 -16 -9 -5 -12 7 -20 17 -16 23 4 6 3 8 -4 4
-15 -9 -164 83 -156 96 4 7 2 8 -4 4 -14 -8 -134 63 -127 75 3 4 0 11 -6 15
-8 5 -9 3 -4 -6 5 -8 3 -11 -6 -8 -8 3 -13 11 -11 17 1 7 -2 10 -8 6 -14 -9
-211 115 -203 128 3 6 1 7 -5 3 -15 -9 -114 53 -105 66 3 7 1 8 -5 4 -16 -10
-54 12 -46 26 4 6 3 8 -4 4 -13 -8 -134 63 -127 74 3 5 0 12 -6 16 -8 5 -9 3
-4 -6 5 -8 3 -11 -6 -8 -8 3 -13 11 -11 17 1 7 -2 10 -7 7 -12 -8 -132 64
-126 74 3 5 0 12 -6 16 -8 5 -9 3 -4 -6 5 -8 3 -11 -6 -8 -8 3 -13 11 -11 17
1 7 -2 10 -7 7 -14 -9 -162 85 -154 97 3 6 1 7 -5 3 -14 -8 -164 82 -157 95 4
5 0 6 -8 3 -8 -3 -18 0 -23 7 -5 8 -3 10 6 4 9 -5 11 -4 6 4 -4 6 -12 9 -17 6
-14 -9 -130 65 -123 77 4 7 2 8 -5 4 -15 -10 -163 83 -154 97 3 6 1 7 -5 3
-16 -10 -54 12 -46 26 4 6 3 8 -4 4 -14 -9 -163 84 -155 97 3 5 1 7 -5 3 -13
-8 -134 63 -127 74 3 5 0 12 -6 16 -8 5 -9 3 -4 -6 5 -8 3 -11 -6 -8 -8 3 -13
11 -11 17 1 7 -2 10 -7 7 -12 -8 -132 64 -126 74 3 5 0 12 -6 16 -8 5 -9 3 -4
-6 5 -8 3 -11 -6 -8 -8 3 -13 11 -11 17 1 7 -2 10 -7 7 -12 -8 -132 64 -126
74 3 5 0 12 -6 16 -8 5 -9 3 -4 -6 5 -8 3 -11 -6 -8 -8 3 -13 11 -11 17 1 7
-2 10 -7 7 -12 -8 -132 64 -126 74 3 5 0 12 -6 16 -8 5 -9 3 -4 -6 5 -8 3 -11
-6 -8 -8 3 -13 10 -12 16 2 6 -3 9 -11 6 -8 -3 -17 0 -22 7 -5 8 -3 10 6 4 9
-5 11 -4 6 4 -4 6 -12 9 -17 6 -13 -8 -131 64 -124 76 4 5 0 6 -8 3 -8 -3 -18
0 -23 7 -5 8 -3 10 6 4 9 -5 11 -4 6 4 -4 6 -12 9 -17 6 -14 -9 -130 65 -123
77 4 7 2 8 -4 4 -16 -10 -54 12 -46 26 4 7 3 8 -4 4 -12 -7 -447 259 -447 274
0 4 -4 12 -9 17 -5 5 -6 3 -2 -4 4 -7 5 -13 3 -13 -12 0 -152 92 -152 99 0 5
-4 13 -9 18 -5 5 -6 3 -2 -4 4 -7 5 -13 2 -13 -13 0 -471 291 -471 299 0 5 -4
13 -9 18 -5 5 -6 3 -2 -4 4 -7 5 -13 2 -13 -13 0 -841 522 -841 530 0 5 -4 12
-9 17 -5 5 -6 3 -2 -4 11 -20 1 -16 -66 27 -60 38 -76 57 -20 24 25 -15 26
-15 7 1 -44 36 -52 36 -52 0z"/>
</g>
</svg>
